<svg width="908" height="472" viewBox="0 0 908 472" fill="none" xmlns="http://www.w3.org/2000/svg">
<g clip-path="url(#clip0_36_47)">
<path d="M617.595 430.587C664.449 415.095 710.521 415.093 754.53 430.583L755.045 428.968C710.704 413.361 664.296 413.36 617.108 428.963L617.595 430.587Z" fill="#E4E4E4"/>
<path d="M117.79 299.268C164.644 283.775 210.715 283.773 254.725 299.263L255.24 297.648C210.899 282.042 164.49 282.04 117.303 297.643L117.79 299.268Z" fill="#E4E4E4"/>
<path d="M219.01 180.838C201.331 132.661 211.108 83.844 240.847 71.8027C270.586 59.7614 309.026 89.0552 326.704 137.232C344.383 185.409 334.606 234.226 304.867 246.267C275.129 258.308 236.689 229.015 219.01 180.838Z" fill="#34D399"/>
<path d="M307.666 315C307.855 315 308.037 314.93 308.179 314.803C308.321 314.676 308.414 314.5 308.441 314.308C308.474 314.068 311.732 289.903 308.806 257.786C306.104 228.126 297.426 185.405 271.431 150.319C271.369 150.234 271.291 150.163 271.202 150.11C271.113 150.056 271.015 150.022 270.913 150.007C270.811 149.993 270.707 150 270.608 150.027C270.508 150.054 270.415 150.101 270.333 150.165C270.251 150.229 270.182 150.309 270.13 150.401C270.079 150.492 270.045 150.593 270.031 150.698C270.018 150.803 270.024 150.91 270.051 151.012C270.077 151.115 270.123 151.21 270.186 151.295C295.956 186.078 304.564 228.486 307.247 257.937C310.156 289.866 306.923 313.843 306.89 314.081C306.875 314.196 306.883 314.312 306.915 314.423C306.947 314.533 307.001 314.636 307.075 314.723C307.148 314.81 307.239 314.88 307.341 314.927C307.443 314.975 307.554 315 307.666 315V315Z" fill="#3F3D56"/>
<path d="M294.255 197C294.417 197 294.576 196.947 294.707 196.847C294.838 196.747 294.936 196.607 294.987 196.445C295.037 196.284 295.037 196.11 294.987 195.948C294.937 195.787 294.839 195.646 294.707 195.546C294.615 195.476 285.274 188.443 271.309 183.101C258.4 178.162 238.769 173.685 218.56 180.406C218.366 180.47 218.204 180.613 218.11 180.802C218.017 180.992 217.999 181.212 218.061 181.415C218.122 181.618 218.259 181.787 218.44 181.885C218.621 181.983 218.832 182.002 219.027 181.937C238.822 175.354 258.096 179.757 270.78 184.61C284.546 189.876 293.712 196.777 293.803 196.846C293.934 196.946 294.093 197 294.255 197V197Z" fill="#3F3D56"/>
<path d="M618.966 261.63C574.053 245.578 559.288 180.505 585.987 116.283C612.687 52.0617 670.74 13.0122 715.653 29.0636C760.566 45.115 775.331 110.189 748.632 174.41C721.932 238.632 663.879 277.681 618.966 261.63Z" fill="#34D399"/>
<path d="M615.453 354C615.175 354 614.906 353.906 614.697 353.736C614.487 353.566 614.35 353.33 614.311 353.074C614.262 352.752 609.456 320.385 613.772 277.368C617.758 237.642 630.557 180.421 668.9 133.427C668.992 133.314 669.106 133.219 669.238 133.147C669.369 133.076 669.514 133.029 669.664 133.01C669.815 132.991 669.968 133 670.115 133.036C670.261 133.072 670.399 133.135 670.52 133.221C670.641 133.307 670.742 133.414 670.818 133.537C670.895 133.659 670.944 133.795 670.965 133.935C670.985 134.076 670.975 134.219 670.936 134.356C670.897 134.493 670.829 134.621 670.737 134.734C632.726 181.323 620.029 238.123 616.072 277.57C611.781 320.336 616.549 352.45 616.597 352.77C616.621 352.923 616.608 353.078 616.561 353.227C616.514 353.375 616.434 353.512 616.325 353.629C616.217 353.745 616.083 353.839 615.932 353.903C615.782 353.967 615.618 354 615.453 354V354Z" fill="#3F3D56"/>
<path d="M634.144 196C633.897 196 633.657 195.928 633.457 195.793C633.257 195.659 633.108 195.469 633.032 195.251C632.956 195.033 632.956 194.798 633.032 194.58C633.108 194.362 633.257 194.172 633.456 194.038C633.597 193.943 647.79 184.449 669.009 177.236C688.624 170.569 718.451 164.525 749.158 173.598C749.305 173.641 749.441 173.71 749.558 173.802C749.676 173.894 749.773 174.006 749.844 174.133C749.914 174.26 749.957 174.398 749.97 174.54C749.984 174.682 749.966 174.825 749.92 174.961C749.873 175.097 749.798 175.223 749.699 175.332C749.6 175.441 749.479 175.531 749.342 175.596C749.205 175.662 749.056 175.701 748.903 175.713C748.75 175.725 748.596 175.709 748.45 175.665C718.372 166.779 689.085 172.723 669.812 179.273C648.897 186.383 634.968 195.699 634.83 195.793C634.631 195.928 634.391 196 634.144 196Z" fill="#3F3D56"/>
<path d="M718.174 421.734C718.252 421.489 725.805 396.939 712.437 375.032L711.072 375.951C724.013 397.157 716.711 420.959 716.636 421.196L718.174 421.734Z" fill="#E4E4E4"/>
<path d="M703.415 378.811C703.793 380.223 704.433 381.542 705.297 382.694C706.161 383.846 707.233 384.807 708.45 385.524C709.668 386.241 711.009 386.699 712.395 386.871C713.781 387.044 715.186 386.928 716.53 386.53C719.244 385.727 721.542 383.825 722.92 381.241C723.603 379.962 724.039 378.554 724.203 377.097C724.367 375.641 724.257 374.165 723.878 372.754C722.286 366.818 712.644 352.092 706.993 353.765C701.342 355.438 701.822 372.875 703.415 378.811Z" fill="#E4E4E4"/>
<path d="M704.814 406.405C709.941 412.225 719.113 412.067 719.113 412.067C719.113 412.067 719.972 402.473 714.845 396.654C709.718 390.834 700.547 390.992 700.547 390.992C700.547 390.992 699.687 400.585 704.814 406.405Z" fill="#E4E4E4"/>
<path d="M172.972 287.009C173.049 286.763 180.603 262.213 167.234 240.306L165.869 241.225C178.81 262.431 171.509 286.233 171.433 286.471L172.972 287.009Z" fill="#E4E4E4"/>
<path d="M157.675 243.456C157.962 244.892 158.515 246.254 159.304 247.465C160.093 248.676 161.101 249.712 162.271 250.513C163.44 251.315 164.749 251.866 166.122 252.136C167.495 252.406 168.905 252.389 170.271 252.086C171.638 251.784 172.934 251.201 174.087 250.372C175.239 249.542 176.224 248.483 176.986 247.253C177.748 246.024 178.272 244.649 178.528 243.206C178.784 241.764 178.767 240.283 178.478 238.848C177.266 232.813 166.995 217.796 161.251 219.068C155.506 220.341 156.463 237.422 157.675 243.456Z" fill="#E4E4E4"/>
<path d="M159.611 271.679C164.738 277.499 173.91 277.341 173.91 277.341C173.91 277.341 174.77 267.748 169.643 261.928C164.516 256.108 155.344 256.266 155.344 256.266C155.344 256.266 154.485 265.86 159.611 271.679Z" fill="#E4E4E4"/>
<path d="M490.897 418.55H483.523L480.014 388.673H490.898L490.897 418.55Z" fill="#A0616A"/>
<path d="M492.778 416.022L478.255 416.021H478.255C475.8 416.021 473.446 417.045 471.711 418.868C469.975 420.691 469 423.164 469 425.742V426.058L492.777 426.059L492.778 416.022Z" fill="#2F2E41"/>
<path d="M519.442 402.683L525.416 407.223L544.932 385.178L536.115 378.477L519.442 402.683Z" fill="#A0616A"/>
<path d="M513.728 407.607L532.991 422.249L533.167 421.993C534.606 419.904 535.196 417.3 534.807 414.754C534.419 412.209 533.083 409.929 531.095 408.418L531.095 408.418L519.329 399.475L513.728 407.607Z" fill="#2F2E41"/>
<path d="M511.371 286.543C511.371 286.543 519.107 280.455 527.473 286.543L533.263 337.27H515.878L513.302 321.037L507.507 296.688L511.371 286.543Z" fill="#2F2E41"/>
<path d="M493.954 364.887L525.155 354.185L540.03 366.583L524.228 391.959L532.493 403.344L532.729 403.062C533.755 401.835 557.841 372.921 557.771 364.721C557.593 359.157 556.698 353.644 555.111 348.332L547.287 336.666L536.182 333.236L499.418 338.656L499.358 338.665L484.504 348.162C483.034 349.154 481.795 350.48 480.878 352.042C479.961 353.604 479.39 355.363 479.207 357.188C478.569 363.218 477.286 411.512 477.273 411.999L477.265 412.316H493.309L493.954 364.887Z" fill="#2F2E41"/>
<path d="M513.743 352.77C519.166 350.238 526.092 340.353 527.233 338.686C529.465 339.962 545.737 349.097 550.325 346.749C550.991 347.135 554.003 349.023 554.546 351.871L554.682 352.586L555.075 351.986C555.147 351.875 562.215 340.836 553.072 333.975C544.735 327.72 542.492 321.401 542.257 320.678L546.781 295.564L546.662 295.448C546.291 295.086 537.485 286.575 529.45 285.563L524.494 284.645L524.277 304.466V329.841C520.272 329.312 513.937 284.975 513.937 284.975L510.626 286.249C509.77 286.422 500.156 288.439 497.605 292.459L497.522 292.59L506.266 317.424L508.824 321.468V326.646L493.883 340.293L494.095 340.526C494.605 341.086 505.622 353.123 512.039 353.121C512.625 353.131 513.205 353.011 513.743 352.77V352.77Z" fill="#2F2E41"/>
<path d="M519.438 279.58C511.483 279.58 505.034 272.805 505.034 264.449C505.034 256.092 511.483 249.318 519.438 249.318C527.394 249.318 533.843 256.092 533.843 264.449C533.843 272.805 527.394 279.58 519.438 279.58Z" fill="#A0616A"/>
<path d="M523.065 357.276C522.962 356.416 522.681 355.591 522.241 354.859C521.802 354.126 521.214 353.503 520.521 353.035C519.828 352.566 519.045 352.263 518.228 352.146C517.411 352.03 516.579 352.103 515.792 352.361L507.536 341.964L500.298 345.694L512.153 360.203C512.653 361.564 513.61 362.684 514.844 363.353C516.078 364.022 517.502 364.192 518.847 363.831C520.192 363.47 521.364 362.603 522.142 361.395C522.919 360.187 523.248 358.721 523.065 357.276V357.276Z" fill="#A0616A"/>
<path d="M517.23 348.46L504.277 330.092L507.486 311.894L502.281 291.391L502.15 291.332C502.045 291.285 499.553 290.182 497.657 291.008C497.269 291.177 496.919 291.427 496.628 291.745C496.337 292.063 496.112 292.44 495.967 292.854C494.678 296.238 491.572 330.702 491.44 332.227C491.467 332.506 492.104 339.079 493.401 341.804C494.692 344.516 506.467 358.2 506.968 358.782L507.175 359.022L517.23 348.46Z" fill="#2F2E41"/>
<path d="M507.065 260.554C511.859 266.889 520.077 265.728 526.653 263.41C526.27 268.481 527.581 273.534 530.36 277.7C529.511 274.107 533.088 273.392 535.175 272.055C535.979 270.987 535.311 269.392 535.641 268.075C539.389 263.459 541.873 259.977 537.062 254.56C534.245 250.6 530.865 245.656 525.499 246.696C521.253 241.493 514.295 242.846 509.548 246.486C507.413 248.145 505.472 250.061 503.763 252.196C504.309 255.005 505.327 257.689 506.768 260.124" fill="#2F2E41"/>
<path d="M370.791 288.182C371.489 287.741 372.086 287.145 372.541 286.436C372.996 285.726 373.297 284.921 373.424 284.076C373.55 283.231 373.499 282.367 373.273 281.545C373.047 280.723 372.653 279.963 372.117 279.319L379.356 203.02L367.269 203.862L363.921 278.994C362.95 280.011 362.368 281.366 362.285 282.804C362.202 284.241 362.624 285.661 363.47 286.793C364.317 287.926 365.53 288.693 366.879 288.949C368.229 289.205 369.62 288.932 370.791 288.182V288.182Z" fill="#FFB8B8"/>
<path d="M362.372 200.193L365.541 225.492L365.101 240.997L378.395 242.275L381.059 229.38L382.527 195.239C382.637 192.664 381.815 190.141 380.225 188.178C378.635 186.215 376.395 184.957 373.958 184.66V184.66C371.429 184.351 368.886 185.099 366.877 186.742C364.869 188.386 363.556 190.793 363.222 193.444L362.372 200.193Z" fill="#2F2E41"/>
<path d="M413.281 422.79L421.344 422.789L425.18 390.117L413.279 390.117L413.281 422.79Z" fill="#FFB7B7"/>
<path d="M411.224 431L437.225 430.999V430.653C437.225 427.834 436.159 425.13 434.261 423.137C432.363 421.143 429.789 420.023 427.105 420.023H427.104L411.224 420.024L411.224 431Z" fill="#2F2E41"/>
<path d="M346.697 422.79L354.76 422.789L358.597 390.117L346.695 390.117L346.697 422.79Z" fill="#FFB7B7"/>
<path d="M344.64 431L370.641 430.999V430.653C370.641 427.834 369.574 425.13 367.677 423.137C365.779 421.143 363.205 420.023 360.521 420.023H360.52L344.64 420.024L344.64 431Z" fill="#2F2E41"/>
<path d="M378.054 172.634C368.398 172.634 360.571 164.412 360.571 154.269C360.571 144.127 368.398 135.905 378.054 135.905C387.709 135.905 395.537 144.127 395.537 154.269C395.537 164.412 387.709 172.634 378.054 172.634Z" fill="#FFB8B8"/>
<path d="M380.313 180.09L368.18 181.546C365.229 185.942 363.316 191.011 362.599 196.336C361.881 201.66 362.379 207.088 364.051 212.171L373.206 239.99C373.206 239.99 360.498 266.752 360.498 291.599C360.498 316.446 336.295 405.138 336.295 405.138L370.363 408.87L385.227 314.389L405.712 408.49L429.097 404.491L416.217 281.115L407.706 240.506L407.343 220.702C407.343 220.702 410.962 205.843 401.905 196.329L390.847 180.143L380.313 180.09Z" fill="#2F2E41"/>
<path d="M398.434 147.711H372.743V135.948C378.382 133.594 383.9 131.593 387.235 135.948C390.205 135.948 393.053 137.187 395.154 139.393C397.254 141.599 398.434 144.591 398.434 147.711V147.711Z" fill="#2F2E41"/>
<path d="M371.321 133.872C355.962 133.872 351.663 154.094 351.663 165.502C351.663 171.864 354.402 174.14 358.707 174.91L360.227 166.394L363.787 175.276C364.996 175.282 366.266 175.258 367.583 175.232L368.791 172.621L371.482 175.185C382.264 175.202 390.978 176.853 390.978 165.502C390.978 154.094 387.207 133.872 371.321 133.872Z" fill="#2F2E41"/>
<path opacity="0.2" d="M394.033 245.566L394.683 215.945L396.405 202.793L400.664 215.82L394.033 245.566Z" fill="black"/>
<path d="M344.486 266.102L372.29 263.606L373.46 180.658L359.905 181.572C359.046 181.633 358.217 181.923 357.494 182.414C356.772 182.906 356.181 183.583 355.777 184.381L337.99 219.827L339.03 260.978C339.065 262.353 339.608 263.658 340.544 264.619C341.481 265.579 342.737 266.119 344.045 266.122C344.192 266.122 344.338 266.116 344.486 266.102Z" fill="#F85959"/>
<path d="M406.969 210.715C406.969 192.349 396.325 177.408 383.243 177.408C370.161 177.408 359.518 192.349 359.518 210.715C359.518 229.081 370.161 244.022 383.243 244.022C396.325 244.022 406.969 229.081 406.969 210.715ZM403.864 210.715C403.864 227.283 394.614 240.761 383.243 240.761C371.873 240.761 362.622 227.283 362.622 210.715C362.622 194.147 371.873 180.669 383.243 180.669C394.614 180.669 403.864 194.147 403.864 210.715V210.715Z" fill="#F85959"/>
<path d="M345.327 261.745L343.499 219.867L362.227 181.41L363.017 181.834L344.395 220.07L346.213 261.702L345.327 261.745Z" fill="#3F3D56"/>
<path d="M390.904 291.265C391.643 290.739 392.263 290.05 392.72 289.245C393.178 288.441 393.462 287.541 393.552 286.608C393.643 285.676 393.538 284.734 393.244 283.849C392.951 282.964 392.476 282.157 391.854 281.486L395.455 197.558L382.279 199.234L382.868 281.642C381.863 282.815 381.303 284.334 381.294 285.912C381.284 287.49 381.826 289.017 382.817 290.203C383.807 291.389 385.178 292.152 386.668 292.348C388.159 292.544 389.666 292.159 390.904 291.265V291.265Z" fill="#FFB8B8"/>
<path d="M376.714 195.526L381.613 223.006L382.009 239.997L396.625 240.566L398.81 226.291L398.484 188.848C398.459 186.024 397.417 183.314 395.566 181.266C393.715 179.217 391.194 177.982 388.51 177.808C385.726 177.628 382.986 178.605 380.882 180.529C378.777 182.452 377.477 185.167 377.262 188.089L376.714 195.526Z" fill="#2F2E41"/>
<path d="M568.872 346.621C569.709 346.619 570.512 346.274 571.11 345.66C571.709 345.046 572.056 344.211 572.079 343.333L572.743 317.024L561.371 294.362C561.113 293.851 560.735 293.419 560.274 293.104C559.812 292.79 559.282 292.605 558.733 292.566L550.066 291.981L550.815 345.013L568.59 346.609C568.685 346.617 568.779 346.621 568.872 346.621Z" fill="#F85959"/>
<path d="M543.812 332.492C552.176 332.492 558.98 322.94 558.98 311.198C558.98 299.456 552.176 289.904 543.812 289.904C535.448 289.904 528.643 299.456 528.643 311.198C528.643 322.939 535.448 332.492 543.812 332.492ZM543.812 291.988C551.081 291.988 556.996 300.606 556.996 311.198C556.996 321.79 551.081 330.407 543.812 330.407C536.542 330.407 530.628 321.79 530.628 311.198C530.628 300.606 536.542 291.988 543.812 291.988Z" fill="#F85959"/>
<path d="M568.052 343.823L569.221 317.048L557.248 292.462L556.743 292.733L568.648 317.179L567.487 343.796L568.052 343.823Z" fill="#3F3D56"/>
<path d="M507.886 364.344C507.979 364.381 508.076 364.407 508.175 364.422L520.311 366.201C520.605 366.245 520.904 366.183 521.159 366.025C521.415 365.867 521.611 365.622 521.717 365.331L532.163 336.778C532.231 336.593 532.26 336.395 532.248 336.198C532.236 336 532.184 335.807 532.095 335.633C532.006 335.458 531.882 335.306 531.732 335.186C531.581 335.067 531.408 334.982 531.224 334.939H531.224L519.812 332.264C519.724 332.243 519.638 332.21 519.558 332.167L508.458 326.07C508.372 326.023 508.282 325.986 508.188 325.96L495.972 322.539C495.659 322.451 495.326 322.488 495.038 322.642C494.749 322.797 494.526 323.058 494.41 323.376L485.302 348.272C485.222 348.489 485.195 348.724 485.225 348.954C485.256 349.185 485.341 349.403 485.474 349.589L488.624 354.033C488.772 354.242 488.974 354.403 489.205 354.496L496.09 357.275C496.139 357.295 496.187 357.319 496.233 357.347L507.704 364.253C507.762 364.288 507.823 364.318 507.886 364.344V364.344Z" fill="white"/>
<path d="M502.24 326.345L503.791 326.78L507.902 327.932L507.909 327.933L513.537 331.025L515.626 332.172L515.627 332.172L518.764 333.895L518.85 333.915L522.109 334.679L523.684 335.049L530.107 336.554L520.023 364.118L513.403 363.148L511.78 362.909L508.321 362.402L508.281 362.396L497.164 355.704L490.401 352.973L487.313 348.617L496.091 324.624L502.24 326.345Z" fill="#E4E4E4"/>
<path d="M494.645 328.577L528.087 342.077L527.514 343.642L494.072 330.142L494.645 328.577Z" fill="white"/>
<path d="M492.736 333.795L526.178 347.295L525.605 348.86L492.163 335.36L492.736 333.795Z" fill="white"/>
<path d="M488.88 344.335L522.322 357.835L521.749 359.4L488.307 345.9L488.88 344.335Z" fill="white"/>
<path d="M502.24 326.346L492.228 353.711L493.718 354.312L503.791 326.78L502.24 326.346Z" fill="white"/>
<path d="M513.537 331.025L515.594 337.033L516.306 339.117L517.969 343.981L518.326 345.02L518.682 346.065L519.152 347.437L522.522 357.289L523.398 354.895L520.65 346.859L520.028 345.041L519.937 344.776L519.202 342.625L518.274 339.913L517.561 337.828L515.628 332.173L515.626 332.172L513.537 331.025Z" fill="white"/>
<path d="M522.109 334.679L511.781 362.909L513.404 363.148L523.684 335.048L522.109 334.679Z" fill="white"/>
<path d="M518.08 361.699C518.183 360.839 518.465 360.014 518.904 359.281C519.344 358.549 519.931 357.926 520.624 357.457C521.318 356.989 522.101 356.685 522.918 356.569C523.735 356.453 524.566 356.526 525.353 356.783L533.61 346.387L540.848 350.117L528.992 364.626C528.493 365.987 527.535 367.107 526.301 367.776C525.068 368.444 523.643 368.614 522.298 368.253C520.953 367.893 519.781 367.026 519.003 365.818C518.226 364.61 517.898 363.144 518.08 361.698V361.699Z" fill="#A0616A"/>
<path d="M534.083 359.836C534.821 359.254 552.189 345.542 554.13 341.466C556.073 337.383 555.591 325.292 555.566 324.742C555.536 324.552 552.512 305.658 549.954 298.941C547.301 291.972 540.626 294.683 540.558 294.711L540.357 294.796L543.263 330.415L527.41 352.506L533.869 360.005L534.083 359.836Z" fill="#2F2E41"/>
<path d="M831.313 183.28V162.888C832.491 163.957 833.369 168.116 833.369 173.084C833.369 178.052 832.491 182.211 831.313 183.28Z" fill="url(#paint0_radial_36_47)"/>
<path d="M732.352 199.985L757.384 201.225C759.536 202.023 755.479 179.723 755.573 174.263C755.585 173.591 761.075 171.611 761.075 171.611C761.075 171.611 772.275 210.803 768.926 213.331C761.97 218.584 729.183 216.904 729.183 216.904L732.352 199.985Z" fill="#E7B0B0"/>
<path d="M733.932 196.782C733.932 196.782 739.251 196.27 740.377 195.253C742.764 193.099 742.313 187.693 744.075 184.937C744.698 183.964 747.445 183.484 748.479 182.27C749.971 180.518 745.792 176.057 745.792 172.234C745.792 171.122 746.821 169.269 746.821 169.269C746.821 169.269 749.501 160.8 748.13 159.279C745.253 156.085 733.639 157.394 729.637 158.568C726.562 159.47 722.489 165.52 719.609 166.975C718.907 167.33 717.564 166.578 716.231 165.825C714.733 164.979 713.247 164.133 712.7 164.86C711.692 166.201 710.737 173.034 711.566 174.509C713.717 178.331 709.151 192.852 709.151 192.852L733.932 196.782" fill="#E7B0B0"/>
<path d="M719.094 179.129C719.275 182.555 721.795 186.375 724.419 188.696C731.435 194.904 740.377 195.253 740.377 195.253C740.377 195.253 740.174 196.338 733.932 196.782C728.147 197.193 710.813 194.809 710.813 194.809L712.962 184.109L715.705 177.627C715.705 177.627 719.054 178.389 719.094 179.129" fill="#E7B0B0"/>
<path d="M665.891 352.302C665.891 352.302 662.858 357.329 660.026 366.207C655.442 380.582 656.119 406.647 656.119 406.647L664.587 408.038C664.587 408.038 674.615 373.444 678.107 364.992C679.517 361.576 684.62 351.781 684.62 351.781L665.891 352.302" fill="#E7B0B0"/>
<path d="M742.276 334.399C742.276 334.399 740.806 340.079 740.319 342.047C738.81 348.182 737.127 371.735 735.759 377.909C735.252 380.209 750.453 382.084 749.186 379.298C748.474 377.735 748.88 374.053 749.186 372.346C750.76 363.533 763.771 320.493 763.771 320.493L742.276 334.399" fill="#E7B0B0"/>
<path d="M687.391 275.821C687.391 275.821 683.691 275.821 679.572 287.641C677.072 294.817 678.235 312.247 676.315 319.624C673.058 332.139 665.891 352.302 665.891 352.302L697.815 357.167L716.016 317.028C716.016 317.028 722.816 322.981 725.196 325.152C732.155 331.504 736.3 326.423 744.598 332.4L764.225 320.851C764.225 320.851 733.003 289.541 730.386 286.25C729.3 284.887 727.128 279.992 727.128 279.992L687.391 275.821" fill="#2F2E41"/>
<path d="M709.584 191.432C707.999 191.131 711.317 186.634 710.618 185.084C710.122 183.981 706.988 180.373 706.465 179.286C704.987 176.224 701.912 167.615 704.569 157.04C706.142 150.784 709.076 143.722 716.669 141.422C730.972 137.089 752.359 148.819 751.834 160.097C751.578 165.618 747.9 162.842 748.23 161.934C749.623 158.111 739.608 157.868 737.514 157.804C735.644 157.747 730.644 158.655 727.723 168.262C725.301 176.224 721.323 172.513 721.042 170.797C720.777 169.178 716.687 176.052 716.543 177.996C716.261 181.853 713.153 192.111 709.584 191.432" fill="#763432"/>
<path d="M709.15 190.819C709.152 189.635 710.715 187.067 710.716 185.616C710.715 187.067 709.152 189.635 709.15 190.819Z" fill="url(#paint1_radial_36_47)"/>
<path d="M703.525 165.47C703.524 162.962 703.797 160.231 704.493 157.349C703.797 160.231 703.524 162.962 703.525 165.47Z" fill="#E2D7D5"/>
<path d="M712.185 190.106C714.528 187.326 716.294 181.01 716.535 178.092C716.294 181.011 714.529 187.327 712.185 190.106ZM716.539 178.046C716.54 178.029 716.542 178.012 716.543 177.996C716.546 177.954 716.551 177.911 716.557 177.864C716.558 177.865 716.558 177.865 716.559 177.865L716.543 177.996C716.542 178.012 716.54 178.029 716.539 178.046Z" fill="#CE6145"/>
<path d="M709.924 191.464C709.812 191.464 709.698 191.453 709.584 191.431C709.272 191.372 709.15 191.15 709.15 190.819C709.152 189.635 710.715 187.067 710.717 185.616C710.717 185.579 710.715 185.544 710.714 185.509C710.705 185.351 710.674 185.208 710.618 185.084C710.122 183.981 706.988 180.373 706.465 179.286C705.405 177.091 703.526 172.046 703.525 165.47C703.524 162.962 703.797 160.231 704.493 157.349C704.518 157.246 704.544 157.143 704.569 157.04C706.142 150.784 709.076 143.722 716.669 141.422C717.626 141.132 718.616 140.919 719.627 140.768C715.821 141.492 713.017 143.218 711.514 145.155C708.681 148.809 707.037 160.341 708.031 168.412C709.027 176.482 714.125 177.178 715.705 177.627C716.001 177.71 716.29 177.783 716.557 177.864C716.551 177.911 716.546 177.954 716.543 177.996C716.542 178.012 716.54 178.029 716.539 178.046C716.538 178.061 716.536 178.077 716.535 178.092C716.294 181.01 714.528 187.326 712.185 190.106C711.476 190.946 710.713 191.464 709.924 191.464" fill="#662C2A"/>
<path d="M745.391 202.258L766.836 208.765C768.777 210.039 789.379 190.456 790.573 185.147C790.72 184.494 798.179 185.296 798.179 185.296C798.179 185.296 776.886 218.004 773.105 219.703C765.252 223.232 738.879 218.051 738.879 218.051L745.391 202.258" fill="#E7B0B0"/>
<path d="M738.879 218.688C738.879 218.688 765.252 223.869 773.105 220.34C773.768 220.042 775.394 218.322 777.085 215.455C774.498 219.278 750.171 216.51 746.24 215.88C742.26 215.243 744.648 205.473 745.391 202.895L738.879 218.688" fill="#E7B0B0"/>
<path d="M680.94 281.614C684.356 272.657 691.681 251.043 691.681 251.043C691.681 251.043 692.039 203.72 700.991 192.96C705.245 187.845 712.794 189.603 716.745 189.903C723.569 190.421 746.345 202.831 745.391 202.258L738.198 225.704L733.703 225.119C733.703 225.119 734.001 248.056 732.023 269.765C731.449 276.064 731.879 281.02 730.867 285.17C728.782 293.719 723.067 300.03 694.101 292.232C679.141 288.205 679.549 285.262 680.94 281.614Z" fill="#2F2E41"/>
<path d="M668.041 406.915C666.608 405.476 667.039 402.116 667.039 402.116L655.489 401.933C655.489 401.933 654.258 406.584 654.016 410.458C653.839 413.234 654.016 414.399 654.016 418.759H677.955V410.559C674.204 409.486 669.19 408.066 668.041 406.915Z" fill="#31404E"/>
<path d="M682.514 411.806C681.041 411.426 679.478 410.996 677.955 410.559V418.759L686.573 418.064C686.573 418.064 687.283 413.039 682.514 411.806Z" fill="white"/>
<path d="M654.016 421.482H686.572V418.064H654.016V421.482Z" fill="white"/>
<path d="M664.438 411.459C664.438 413.571 662.83 415.283 660.854 415.283C658.878 415.283 657.273 413.571 657.273 411.459C657.273 409.347 658.878 407.635 660.854 407.635C662.83 407.635 664.438 409.347 664.438 411.459Z" fill="#F4F5F5"/>
<path d="M749.829 377.15C748.517 375.586 749.215 372.277 749.215 372.277L737.045 371.046C737.045 371.046 736.118 375.569 735.57 379.409C735.176 382.158 735.255 383.335 734.909 387.677L758.768 392.59L759.421 381.518C755.772 380.107 750.879 378.402 749.829 377.15" fill="#31404E"/>
<path d="M765.155 382.953C763.071 382.369 760.904 382.091 759.421 381.518L758.768 392.59L768.457 388.845C768.457 388.845 768.904 384.004 765.155 382.953" fill="white"/>
<path d="M734.743 392.59H768.457V388.845L749.754 388.332L734.964 386.985L734.743 392.59Z" fill="white"/>
<path d="M722.866 170.542C723.755 174.161 722.385 177.68 719.806 178.402C717.227 179.125 714.411 176.778 713.522 173.158C712.632 169.54 714.004 166.018 716.586 165.297C719.161 164.574 721.973 166.921 722.866 170.542" fill="#E7B0B0"/>
<path d="M719.936 171.018C720.155 171.913 718.736 172.358 718.692 173.41C718.641 174.58 719.929 176.321 719.409 176.468C718.416 176.744 716.292 174.536 715.828 172.646C715.363 170.756 716.307 168.376 717.298 168.099C718.291 167.821 719.471 169.127 719.936 171.018" fill="#E7B0B0"/>
<path d="M744.535 169.206C744.619 169.515 742.924 173.29 742.185 173.102C740.2 172.6 738.497 172.958 737.466 173.205C737.466 173.205 736.883 169.872 739.032 169.21C741.185 168.546 744.23 168.077 744.535 169.206Z" fill="#E7B0B0"/>
<path d="M748.727 180.709C748.713 180.757 748.699 180.807 748.703 180.876C748.74 181.593 747.061 181.792 745.829 182.23C744.787 182.601 744.416 182.368 744.28 181.805C744.237 179.89 744.677 179.756 741.762 174.98C739.564 171.379 739.736 171.634 739.796 171.888C739.821 171.996 739.827 172.105 739.619 171.915C738.927 171.279 737.733 169.686 737.583 170.801C737.434 171.916 738.728 172.766 738.728 172.766L738.18 173.031C738.18 175.58 739.076 175.58 740.568 179.88C742.061 184.181 743.292 185.018 742.844 188.044C742.844 188.044 743.421 186.824 743.851 185.333L743.854 185.333C743.925 185.198 743.995 185.062 744.075 184.937C744.698 183.964 747.445 183.484 748.479 182.27C748.814 181.875 748.853 181.339 748.727 180.709" fill="#E7B0B0"/>
<path d="M737.501 173.337C737.316 172.402 738.732 172.01 739.619 171.914C740.416 171.828 742.649 171.493 742.919 172.307C743.054 172.709 742.182 173.404 741.799 173.53C741.181 173.732 739.892 173.118 739.249 173.06C738.511 172.994 737.501 173.337 737.501 173.337" fill="#2C1414"/>
<path d="M737.569 170.232C736.175 168.609 738.922 168.06 739.994 167.86C740.944 167.682 745.008 167.109 744.776 168.84C744.721 169.262 744.624 169.674 744.228 169.737C743.591 169.841 742.653 169.427 739.704 169.541C738.79 169.575 737.907 170.625 737.569 170.232Z" fill="#602F2B"/>
<path d="M697.881 293.188C697.881 293.188 694.673 317.106 692.016 324.593C684.91 344.608 680.718 354.461 680.718 354.461L665.891 352.302C665.891 352.302 675.002 326.553 676.73 317.594C678.029 310.869 676.89 298.641 678.537 289.383C678.732 288.296 679.858 284.306 679.858 284.306C679.858 284.306 682.387 287.166 687.673 289.924C691.829 292.093 697.881 293.188 697.881 293.188" fill="#2F2E41"/>
<path d="M715.402 204.898C712.013 203.621 704.111 202.009 699.883 203.682C697.128 204.773 694.966 208.872 694.79 210.853C694.79 210.858 693.515 220.07 692.788 232.714C692.379 239.85 692.074 251.683 691.042 255.245C685.187 275.464 678.865 283.534 679.455 285.638C680.688 290.032 696.681 292.944 697.881 293.188C700.254 293.671 711.912 225.437 722.956 225.119C726.26 225.023 738.198 225.704 738.198 225.704L741.127 216.415C741.127 216.415 721.979 207.374 715.402 204.898Z" fill="#2F2E41"/>
<path d="M742.276 334.399C742.276 334.399 738.766 345.863 738.443 352.185C738.18 357.329 737.045 371.046 737.045 371.046L743.835 371.733L753.391 330.724L763.404 321.17L742.276 334.399Z" fill="#E7B0B0"/>
<path d="M720.867 311.984C717.957 312.81 714.599 319.949 714.599 319.949L741.324 336.011L761.066 322.709C761.066 322.709 723.213 311.318 720.867 311.984Z" fill="#2F2E41"/>
<path d="M667.75 404.233C668.237 404.523 668.715 404.775 669.298 404.837C670.341 404.95 672.215 404.851 672.602 403.767C672.756 403.339 672.626 403.021 672.489 402.83C672.249 402.492 671.805 402.289 671.41 402.323C670.791 402.384 669.164 403.351 667.75 404.233V404.233ZM663.209 403.312C662.748 403.312 662.351 403.473 662.024 403.877C661.72 404.251 661.406 404.767 661.644 405.094C662.067 405.675 663.78 405.715 664.804 405.168C665.101 405.009 665.607 404.691 666.205 404.313C665.98 404.223 665.743 404.118 665.501 404.011C664.606 403.616 663.843 403.312 663.209 403.312V403.312ZM665.711 410.463L665.584 410.438C665.397 410.363 665.303 410.141 665.374 409.943C665.565 409.403 666.139 406.732 666.378 405.099C665.853 405.429 665.411 405.704 665.126 405.855C663.882 406.521 661.769 406.518 661.075 405.566C660.832 405.232 660.56 404.502 661.479 403.373C662.662 401.92 664.388 402.686 665.777 403.3C666.197 403.486 666.593 403.662 666.934 403.759L667.01 403.79L667.023 403.798C668.947 402.589 670.565 401.634 671.341 401.556C671.974 401.489 672.675 401.816 673.064 402.364C673.412 402.854 673.488 403.449 673.275 404.043C672.619 405.872 669.786 405.662 669.226 405.602C668.597 405.534 668.083 405.296 667.605 405.024L669.233 408.966C669.316 409.16 669.23 409.387 669.051 409.473C668.865 409.559 668.653 409.47 668.575 409.277L667.039 405.56C666.765 407.295 666.227 409.708 666.048 410.214C665.993 410.369 665.857 410.463 665.711 410.463" fill="white"/>
<path d="M749.374 374.417C749.86 374.707 750.339 374.959 750.922 375.022C751.963 375.135 753.839 375.035 754.226 373.952C754.38 373.523 754.25 373.206 754.113 373.014C753.873 372.677 753.429 372.474 753.034 372.507C752.416 372.568 750.788 373.537 749.374 374.417V374.417ZM744.833 373.497C744.372 373.497 743.977 373.658 743.648 374.062C743.344 374.436 743.03 374.951 743.268 375.278C743.691 375.859 745.404 375.9 746.428 375.353C746.725 375.194 747.231 374.875 747.83 374.498C747.603 374.408 747.367 374.303 747.125 374.195C746.231 373.8 745.467 373.497 744.833 373.497V373.497ZM747.337 380.648L747.207 380.624C747.021 380.548 746.927 380.325 746.998 380.127C747.189 379.586 747.764 376.917 748.001 375.283C747.476 375.614 747.035 375.889 746.75 376.041C745.505 376.706 743.391 376.702 742.699 375.75C742.456 375.416 742.184 374.687 743.104 373.556C744.286 372.105 746.012 372.871 747.4 373.485C747.821 373.671 748.217 373.846 748.558 373.944L748.634 373.975L748.646 373.983C750.57 372.773 752.189 371.819 752.967 371.741C753.598 371.674 754.298 372 754.688 372.548C755.035 373.039 755.111 373.634 754.899 374.228C754.243 376.056 751.41 375.846 750.849 375.787C750.222 375.719 749.706 375.481 749.229 375.209L750.857 379.15C750.94 379.346 750.855 379.572 750.675 379.657C750.489 379.744 750.279 379.655 750.199 379.462L748.663 375.745C748.388 377.48 747.851 379.892 747.672 380.399C747.618 380.553 747.481 380.648 747.337 380.648" fill="white"/>
<path d="M755.017 382.877C754.887 382.877 754.764 382.8 754.7 382.678L753.062 379.478L750.874 381.327C750.755 381.426 750.589 381.437 750.461 381.352C750.331 381.268 750.266 381.107 750.296 380.948L750.937 377.585H746.731C746.582 377.585 746.449 377.488 746.396 377.341C746.341 377.194 746.376 377.027 746.483 376.919L748.494 374.918C748.642 374.775 748.867 374.781 749.004 374.936C749.14 375.092 749.132 375.334 748.987 375.48L747.646 376.815H751.378C751.487 376.815 751.59 376.867 751.657 376.956C751.727 377.046 751.753 377.163 751.731 377.277L751.2 380.07L752.949 378.592C753.034 378.522 753.139 378.493 753.246 378.517C753.349 378.539 753.438 378.61 753.49 378.709L754.989 381.637L755.607 380.206C755.691 380.011 755.901 379.927 756.086 380.017C756.268 380.106 758.137 380.334 758.052 380.527L755.345 382.653C755.288 382.786 755.165 382.872 755.029 382.877H755.017" fill="white"/>
<path d="M673.825 413.107C673.683 413.107 673.554 413.018 673.496 412.878L672.246 409.872L669.599 411.777C669.485 411.861 669.337 411.866 669.217 411.79C669.099 411.716 669.028 411.575 669.039 411.428L669.265 408.422H664.587C664.454 408.422 664.334 408.345 664.271 408.22C664.207 408.097 664.212 407.947 664.285 407.828L666.075 404.889C666.185 404.711 666.407 404.662 666.573 404.776C666.741 404.892 666.787 405.131 666.68 405.308L665.251 407.653H669.653C669.754 407.653 669.85 407.698 669.917 407.777C669.986 407.856 670.022 407.961 670.014 408.069L669.817 410.693L672.198 408.978C672.288 408.915 672.4 408.898 672.5 408.927C672.602 408.958 672.684 409.037 672.73 409.14L673.777 411.66L674.304 409.974C674.367 409.774 674.574 409.663 674.76 409.731C674.948 409.798 675.05 410.017 674.988 410.218L674.167 412.844C674.121 412.994 673.991 413.098 673.843 413.107H673.825" fill="white"/>
<path d="M682.957 354.939L681.464 357.647C681.464 357.647 674.688 356.284 672.062 357.966C669.823 359.399 668.228 363.363 667.634 364.974C663.132 377.192 662.081 402 662.081 402L656.12 401.933C656.12 401.933 655.196 380.373 660.644 364.328C661.994 360.354 665.891 352.302 665.891 352.302L682.957 354.939" fill="#E7B0B0"/>
<path d="M682.338 356.225C677.225 355.022 671.356 353.718 671.017 353.718C670.42 353.718 663.853 364.55 663.853 364.55L666.39 368.559C667.733 364.337 672.609 363.913 677.385 364.763C677.638 364.807 677.894 364.847 678.151 364.887C678.954 362.968 680.815 359.224 682.338 356.225Z" fill="#E7B0B0"/>
<path d="M724.598 321.807C722.434 319.179 714.559 319.96 714.599 319.869C717.26 313.71 717.633 310.763 720.121 301.418L722.36 310.923L724.598 321.807" fill="#2F2E41"/>
<path d="M720.121 301.418C720.121 301.418 726.986 299.666 727.732 292.657C727.732 292.657 735.983 309.586 753.703 318.887C765.842 325.258 718.33 319.736 717.882 319.099C717.434 318.462 720.121 301.418 720.121 301.418Z" fill="#2F2E41"/>
<path d="M727.732 292.658L761.066 322.709L734.499 329.718L727.732 292.658Z" fill="#2F2E41"/>
<path d="M696.17 363.32L662.514 354.368L665.746 346.786L699.401 356.375L696.17 363.32Z" fill="#2F2E41"/>
<path d="M765.543 321.011L740.419 337.258L735.046 332.798L759.175 313.577L765.543 321.011Z" fill="#2F2E41"/>
<path d="M750.817 176.695C750.917 178.075 752.508 179.668 756.19 179.668C759.872 179.668 758.578 175.208 758.578 175.208L750.817 176.695Z" fill="#E7B0B0"/>
<path d="M820.567 180.706L741.762 174.981V170.763L820.567 165.038V180.706" fill="#525563"/>
<path d="M763.126 169.211L763.553 169.174V169.179L763.126 169.211Z" fill="#BDBCC0"/>
<path d="M763.553 176.563L741.762 174.98V173.403H761.986L762.809 169.238L763.126 169.211L763.553 169.18V176.563" fill="#3D3D4A"/>
<path d="M798.179 178.557C798.179 179.608 797.374 180.445 796.389 180.418L765.343 179.552C764.359 179.524 763.553 178.642 763.553 177.591V168.153C763.553 167.101 764.359 166.218 765.343 166.191L796.389 165.326C797.374 165.298 798.179 166.135 798.179 167.187V178.557Z" fill="#525563"/>
<path d="M791.587 180.375L767.782 179.634V179.62L791.587 180.284V180.375ZM763.603 178.039C763.571 177.895 763.553 177.744 763.553 177.591C763.553 177.744 763.571 177.895 763.603 178.039Z" fill="#BDBCC0"/>
<path d="M791.587 180.284L767.782 179.62V173.403H787.73C788.715 173.403 789.618 172.549 789.737 171.505L790.204 167.41C790.298 166.593 790.871 165.877 791.587 165.589V180.284M763.603 178.039C763.571 177.895 763.553 177.744 763.553 177.591V175.314C763.553 175.161 763.57 175.011 763.603 174.867V178.039Z" fill="#3D3D4A"/>
<path d="M829.821 179.527C829.821 180.929 828.746 182.076 827.433 182.076H794C792.687 182.076 791.613 180.929 791.613 179.527V166.217C791.613 164.815 792.687 163.667 794 163.667H827.433C828.746 163.667 829.821 164.815 829.821 166.217V179.527Z" fill="#525563"/>
<path d="M825.941 182.076H796.961V173.403H821.463C822.448 173.403 823.408 172.559 823.598 171.527L824.701 165.509C824.83 164.8 825.324 164.18 825.941 163.861V182.076Z" fill="#3D3D4A"/>
<path d="M825.941 183.987H831.314V161.756H825.941V183.987Z" fill="#CB7145"/>
<path d="M763.603 180.597H767.782V165.181H763.603V180.597Z" fill="#CB7145"/>
<path d="M742.31 175.152L739.325 175.789C739.325 175.789 738.728 174.783 738.728 172.766C738.728 170.748 739.325 169.989 739.325 169.989L742.31 170.626V175.152Z" fill="#525563"/>
<path d="M791.587 182.533H796.961V163.246H791.587V182.533Z" fill="#CB7145"/>
<path d="M796.961 182.533H791.587V172.913H796.961V173.403V182.076V182.533Z" fill="#BB5634"/>
<path d="M763.678 180.518H767.732V172.913H763.678V180.518Z" fill="#BB5634"/>
<path d="M794.2 191.137C795.895 188.698 798.479 186.079 802.16 185.19C803.448 184.879 805.192 185.296 806.637 185.296C808.275 185.296 809.481 184.154 810.219 183.704C812.309 182.429 812.291 182.455 812.011 182.004C811.612 181.367 797.583 181.898 795.194 181.898C792.807 181.898 790.8 183.804 790.408 185.74C790.06 187.459 794.2 191.137 794.2 191.137" fill="#E7B0B0"/>
<path d="M793.901 183.279C794.797 182.11 796.289 179.031 798.876 178.819C801.463 178.606 805.244 178.819 806.538 178.819C807.831 178.819 808.13 181.367 805.841 181.367C803.553 181.367 797.583 184.022 797.583 184.022L793.901 183.279" fill="#E7B0B0"/>
<path d="M753.103 172.235C752.075 172.235 751.18 171.426 751.035 170.309L750.638 167.23C750.48 166.01 751.279 164.883 752.422 164.716C753.563 164.549 754.62 165.4 754.777 166.621L755.176 169.699C755.333 170.92 754.533 172.046 753.391 172.213C753.294 172.228 753.197 172.235 753.103 172.235" fill="#E7B0B0"/>
<path d="M752.708 178.818C752.164 178.818 751.627 178.554 751.275 178.054C750.681 177.209 750.841 176.011 751.633 175.378L753.623 173.785C754.414 173.152 755.537 173.322 756.131 174.167C756.724 175.012 756.564 176.21 755.772 176.843L753.782 178.436C753.46 178.694 753.083 178.818 752.708 178.818Z" fill="#E7B0B0"/>
<path d="M756.188 172.553C755.259 172.553 754.474 171.788 754.404 170.783L754.205 167.916C754.132 166.862 754.872 165.946 755.859 165.868C756.844 165.79 757.704 166.58 757.777 167.633L757.976 170.5C758.05 171.553 757.309 172.47 756.322 172.548L756.188 172.553Z" fill="#E7B0B0"/>
<path d="M758.481 172.341C758.393 172.341 758.305 172.334 758.216 172.32C757.237 172.165 756.562 171.193 756.707 170.149L757.105 167.282C757.25 166.237 758.159 165.517 759.14 165.671C760.118 165.826 760.793 166.798 760.648 167.842L760.25 170.71C760.118 171.659 759.353 172.341 758.481 172.341Z" fill="#E7B0B0"/>
<path d="M760.268 172.341C759.926 172.341 759.582 172.237 759.276 172.02C758.453 171.434 758.231 170.247 758.78 169.369L759.775 167.776C760.324 166.897 761.435 166.66 762.258 167.246C763.082 167.831 763.304 169.018 762.755 169.897L761.76 171.489C761.415 172.042 760.847 172.341 760.268 172.341Z" fill="#E7B0B0"/>
<path d="M825.941 183.987H831.314V172.554H825.941V183.987Z" fill="#BB5634"/>
<path d="M700.99 192.959C696.306 198.591 694.408 210.322 693.436 222.274C693.72 222.182 694.007 222.07 694.3 221.933C699.076 219.703 703.852 205.686 703.852 205.686C702.808 195.969 709.34 189.094 716.745 189.904C712.794 189.603 705.245 187.845 700.99 192.959Z" fill="#2F2E41"/>
<path d="M742.77 189.159C742.746 189.153 742.723 189.146 742.699 189.139C742.742 188.93 742.785 188.722 742.829 188.516C742.862 188.526 742.895 188.535 742.928 188.545L742.77 189.159" fill="url(#paint2_radial_36_47)"/>
<path d="M742.699 189.139C740.911 188.62 740.053 187.872 738.715 186.477C738.706 186.467 738.696 186.456 738.688 186.445C738.886 186.354 739.076 186.248 739.234 186.128C740.439 187.377 741.199 188.038 742.829 188.516C742.785 188.722 742.742 188.93 742.699 189.139Z" fill="#9F583C"/>
<path d="M737.285 186.889C737.285 186.889 738.927 186.332 739.225 185.058L739.636 185.614C739.577 185.809 739.43 185.98 739.234 186.128C739.203 186.095 739.17 186.061 739.137 186.027C739.075 185.962 739.005 185.934 738.938 185.934C738.718 185.934 738.522 186.225 738.688 186.445C738.031 186.747 737.285 186.889 737.285 186.889" fill="#9F583C"/>
<path d="M738.688 186.445C738.522 186.226 738.718 185.934 738.938 185.934C739.005 185.934 739.075 185.962 739.137 186.027C739.17 186.061 739.203 186.095 739.234 186.128C739.076 186.248 738.886 186.354 738.688 186.445" fill="#793F32"/>
<path d="M835.45 344.893L834.984 344.904L837.083 439.022L837.549 439.012L835.45 344.893Z" fill="#3F3D56"/>
<path d="M836.093 386.472C836.069 386.391 833.757 378.335 838.611 370.651L839.007 370.894C834.262 378.406 836.517 386.264 836.54 386.342L836.093 386.472V386.472Z" fill="#3F3D56"/>
<path d="M838.729 371.088C838.729 371.088 837.23 360.982 851.034 358.208C853.91 357.63 856.614 357.236 859.092 356.972C862.018 356.662 863.159 360.613 860.516 361.89C856.689 363.738 853.088 366.067 851.212 368.825C846.037 376.431 838.729 371.088 838.729 371.088V371.088Z" fill="#34D399"/>
<path d="M836.907 415.697L836.46 415.567C836.483 415.489 838.734 407.624 833.993 400.119L834.389 399.876C839.243 407.56 836.931 415.616 836.907 415.697Z" fill="#3F3D56"/>
<path d="M834.271 400.313C834.271 400.313 835.77 390.207 821.966 387.433C819.09 386.856 816.386 386.461 813.908 386.197C810.982 385.887 809.841 389.838 812.484 391.115C816.311 392.963 819.912 395.292 821.788 398.05C826.964 405.656 834.271 400.313 834.271 400.313V400.313Z" fill="#34D399"/>
<path d="M853.484 331.819C856.263 331.096 858.861 329.836 858.775 328.59C858.673 327.11 854.815 326.118 851.487 325.967C853.997 324.029 856.304 321.351 855.598 320.139C854.95 319.025 851.933 319.457 849.15 320.438C850.797 318.114 851.955 315.496 851.073 314.6C849.975 313.484 846.076 315.41 843.415 317.54C843.933 314.222 843.672 310.035 842.164 309.656C840.902 309.339 839.114 311.775 837.888 314.428C837.347 311.644 836.25 309 834.984 309C833.181 309 831.719 314.365 831.719 317.86C831.719 318.057 831.725 318.243 831.734 318.421C831.553 318.214 831.345 317.997 831.109 317.771C828.568 315.336 823.649 312.633 822.393 313.91C821.511 314.806 822.669 317.424 824.316 319.747C821.533 318.766 818.517 318.335 817.868 319.449C816.997 320.945 820.721 324.681 823.748 326.493C823.566 326.471 823.375 326.453 823.172 326.439C819.638 326.201 814.115 327.275 813.992 329.05C813.906 330.296 816.504 331.556 819.283 332.279C816.516 333.305 813.932 334.899 814.166 336.163C814.451 337.696 818.794 338.233 822.208 337.919C819.657 340.334 816.891 344.66 818.046 345.928C818.891 346.857 821.617 345.896 824.079 344.432C822.898 347.105 822.256 350.046 823.338 350.76C824.768 351.704 828.689 348.419 830.757 345.592C830.546 349.05 831.385 353.801 833.049 353.988C834.306 354.13 835.7 351.626 836.558 348.92C837.471 351.694 838.967 354.314 840.257 354.14C841.934 353.915 842.666 349.045 842.353 345.585C844.485 348.295 848.075 351.193 849.429 350.3C850.511 349.585 849.869 346.645 848.688 343.972C851.149 345.435 853.875 346.397 854.721 345.468C855.876 344.2 853.11 339.874 850.559 337.459C853.973 337.773 858.316 337.236 858.601 335.703C858.835 334.439 856.251 332.845 853.484 331.819L853.484 331.819ZM838.523 341.6C837.809 341.696 837.156 341.834 836.659 342.184C836.131 341.667 835.361 341.51 834.504 341.413C833.545 341.305 832.673 341.295 832.008 341.841C831.765 341.174 831.166 340.7 830.47 340.24C829.87 339.845 829.289 339.52 828.682 339.457C828.634 338.725 828.164 338.103 827.587 337.47C827.22 337.066 826.852 336.705 826.444 336.464C827.033 335.757 826.965 334.863 826.783 333.882C826.653 333.182 826.484 332.545 826.106 332.071C826.606 331.528 826.73 330.761 826.789 329.912C826.853 328.985 826.826 328.144 826.284 327.519C827.685 327.694 828.361 326.833 828.99 325.753C829.349 325.137 829.638 324.542 829.66 323.94C830.397 323.844 830.994 323.338 831.595 322.727C832.108 322.206 832.544 321.689 832.708 321.095C833.296 321.583 834.099 321.657 834.984 321.657C835.847 321.657 836.63 321.586 837.214 321.132C837.667 321.536 838.3 321.746 838.999 321.921C839.666 322.089 840.295 322.201 840.867 322.088C841.076 322.559 841.448 322.987 841.872 323.418C842.473 324.028 843.07 324.534 843.807 324.631C843.829 325.233 844.117 325.827 844.476 326.444C844.899 327.17 845.343 327.797 846.014 328.077C845.936 328.499 845.944 328.963 845.978 329.452C846.037 330.301 846.161 331.068 846.66 331.611C846.283 332.085 846.114 332.722 845.984 333.422C845.802 334.403 845.734 335.297 846.323 336.004C845.915 336.245 845.547 336.606 845.18 337.01C844.603 337.643 844.132 338.265 844.085 338.997C843.477 339.06 842.896 339.384 842.297 339.78C841.479 340.32 840.797 340.88 840.666 341.749C840.052 341.455 839.317 341.493 838.523 341.6V341.6Z" fill="#34D399"/>
<path d="M836.617 343.288C843.056 343.288 848.277 338.136 848.277 331.782C848.277 325.427 843.056 320.276 836.617 320.276C830.177 320.276 824.956 325.427 824.956 331.782C824.956 338.136 830.177 343.288 836.617 343.288Z" fill="#3F3D56"/>
<g clip-path="url(#clip1_36_47)">
<path d="M206.841 346.578C213.012 347.575 217.527 351.738 216.924 355.876C216.321 360.014 210.83 362.559 204.657 361.561C202.186 361.198 199.833 360.217 197.795 358.7L171.697 354.129L173.439 343.26L199.478 347.142C201.854 346.337 204.379 346.144 206.841 346.578H206.841Z" fill="#FFB6B6"/>
<path d="M94.377 312.698L104.497 335.323L155.37 353.366L197.584 355.739L198.642 345.056L152.891 334.978L105.945 311.604L94.377 312.698Z" fill="#E6E6E6"/>
<path d="M209.799 265.366L211.187 265.398L208.535 392.375L207.147 392.343L209.799 265.366Z" fill="#3F3D56"/>
<path d="M209.769 321.587C209.895 321.137 212.771 310.428 206.543 299.902L205.366 300.675C211.255 310.628 208.467 321.072 208.438 321.177L209.769 321.587V321.587Z" fill="#3F3D56"/>
<path d="M206.056 300.714C206.056 300.714 207.95 287.08 190.508 283.338C186.874 282.558 183.458 282.026 180.327 281.671C176.63 281.252 175.189 286.583 178.528 288.305C183.364 290.798 187.913 293.94 190.284 297.661C196.823 307.923 206.056 300.714 206.056 300.714V300.714Z" fill="#34D399"/>
<path d="M207.975 361.016L209.307 360.605C209.278 360.5 206.49 350.057 212.379 340.104L211.202 339.33C204.974 349.856 207.85 360.565 207.975 361.016V361.016Z" fill="#3F3D56"/>
<path d="M211.688 340.143C211.688 340.143 209.795 326.508 227.237 322.766C230.87 321.987 234.287 321.454 237.418 321.099C241.114 320.68 242.556 326.011 239.217 327.733C234.381 330.227 229.832 333.369 227.461 337.089C220.922 347.351 211.688 340.143 211.688 340.143H211.688Z" fill="#34D399"/>
<path d="M187.412 247.735C183.902 246.76 180.619 245.061 180.728 243.379C180.857 241.382 185.731 240.044 189.936 239.841C186.764 237.226 183.85 233.612 184.741 231.978C185.561 230.475 189.372 231.057 192.889 232.381C190.808 229.246 189.344 225.714 190.459 224.505C191.847 222.999 196.773 225.598 200.135 228.471C199.48 223.995 199.811 218.346 201.716 217.835C203.31 217.407 205.569 220.694 207.118 224.274C207.803 220.517 209.188 216.95 210.788 216.95C213.066 216.95 214.913 224.187 214.913 228.903C214.913 229.169 214.906 229.42 214.895 229.66C215.123 229.38 215.385 229.089 215.684 228.783C218.895 225.498 225.109 221.852 226.697 223.574C227.811 224.782 226.348 228.315 224.267 231.449C227.783 230.126 231.595 229.544 232.414 231.047C233.515 233.066 228.809 238.106 224.984 240.55C225.214 240.521 225.456 240.496 225.713 240.478C230.178 240.157 237.157 241.605 237.312 244C237.421 245.682 234.138 247.381 230.627 248.356C234.122 249.741 237.388 251.892 237.091 253.596C236.732 255.665 231.245 256.389 226.93 255.965C230.153 259.223 233.648 265.06 232.19 266.771C231.121 268.024 227.677 266.727 224.567 264.753C226.059 268.359 226.87 272.326 225.503 273.289C223.696 274.563 218.741 270.131 216.129 266.317C216.395 270.983 215.335 277.392 213.233 277.645C211.644 277.836 209.883 274.458 208.799 270.807C207.645 274.549 205.755 278.084 204.125 277.85C202.006 277.545 201.082 270.976 201.477 266.307C198.783 269.964 194.247 273.874 192.537 272.668C191.169 271.705 191.98 267.738 193.473 264.132C190.363 266.106 186.918 267.403 185.85 266.15C184.391 264.439 187.886 258.602 191.109 255.344C186.795 255.768 181.308 255.044 180.948 252.975C180.652 251.271 183.917 249.12 187.412 247.735V247.735ZM206.316 260.931C207.219 261.061 208.044 261.247 208.671 261.72C209.338 261.022 210.312 260.81 211.394 260.68C212.607 260.534 213.708 260.52 214.548 261.257C214.856 260.357 215.611 259.717 216.492 259.097C217.249 258.563 217.983 258.125 218.751 258.041C218.811 257.053 219.406 256.214 220.134 255.359C220.598 254.815 221.063 254.328 221.578 254.002C220.834 253.048 220.92 251.842 221.15 250.519C221.314 249.575 221.528 248.715 222.005 248.076C221.374 247.343 221.217 246.308 221.143 245.163C221.062 243.912 221.096 242.778 221.781 241.934C220.01 242.171 219.156 241.009 218.361 239.552C217.908 238.72 217.543 237.919 217.515 237.106C216.584 236.976 215.83 236.293 215.071 235.47C214.422 234.766 213.87 234.069 213.663 233.268C212.92 233.926 211.906 234.025 210.788 234.025C209.698 234.025 208.708 233.931 207.97 233.317C207.398 233.863 206.598 234.145 205.715 234.382C204.873 234.608 204.077 234.759 203.354 234.607C203.09 235.243 202.621 235.819 202.085 236.401C201.326 237.225 200.571 237.907 199.64 238.037C199.612 238.85 199.248 239.652 198.794 240.484C198.26 241.463 197.699 242.31 196.851 242.688C196.95 243.257 196.939 243.883 196.896 244.542C196.822 245.687 196.665 246.722 196.035 247.455C196.512 248.094 196.725 248.954 196.889 249.898C197.119 251.222 197.205 252.427 196.461 253.381C196.977 253.707 197.441 254.194 197.906 254.739C198.634 255.593 199.229 256.432 199.289 257.42C200.056 257.504 200.79 257.942 201.547 258.476C202.581 259.204 203.443 259.96 203.608 261.133C204.384 260.736 205.313 260.787 206.316 260.931V260.931Z" fill="#34D399"/>
<path d="M208.725 263.208C200.588 263.208 193.992 256.258 193.992 247.685C193.992 239.112 200.588 232.162 208.725 232.162C216.862 232.162 223.458 239.112 223.458 247.685C223.458 256.258 216.862 263.208 208.725 263.208Z" fill="#3F3D56"/>
<path d="M188.206 398.605L197.292 422.818L209.049 414.371L202.102 389.033L188.206 398.605Z" fill="#FFB6B6"/>
<path d="M226.151 389.596L250.201 413.808L240.581 424.507L215.997 404.236L226.151 389.596Z" fill="#FFB6B6"/>
<path d="M89.8697 310.764L90.1369 308.793L96.283 296.124L116.592 301.754L112.85 319.21L89.8697 310.764Z" fill="#FFB6B6"/>
<path d="M98.4207 395.227L97.7962 403.684C97.7962 403.684 95.2141 439.147 116.057 441.963C136.9 444.778 145.986 447.593 158.278 425.633L177.517 389.596L188.755 403.684L203.705 391.285C203.705 391.285 193.016 347.364 184.465 345.675C183.396 345.464 182.327 345.358 181.275 345.335C174.196 345.18 167.523 348.828 163.287 354.806L139.038 389.033L130.22 384.809L98.4207 395.227H98.4207Z" fill="#2F2E41"/>
<path d="M213.859 421.692L209.049 412.119L195.154 422.255C195.154 422.255 191.947 434.643 196.757 436.332C201.567 438.021 214.928 435.769 214.928 435.769C214.928 435.769 239.512 441.4 240.047 436.332C240.581 431.264 228.823 430.138 228.823 430.138L213.859 421.692V421.692Z" fill="#2F2E41"/>
<path d="M161.484 414.935L198.628 390.276L217.6 408.177L230.427 392.411C230.427 392.411 206.911 355.811 199.964 354.121C193.016 352.432 181.793 351.306 181.793 351.306L147.589 384.528L161.484 414.935V414.935Z" fill="#2F2E41"/>
<path d="M250.735 411.556L238.443 425.633L240.064 427.094C240.064 427.094 243.253 441.728 250.735 436.777C258.217 431.827 258.752 430.701 258.752 430.701C258.752 430.701 280.129 435.769 282.267 426.759C284.405 417.75 278.526 419.439 278.526 419.439L273.188 422.818L250.735 411.556L250.735 411.556Z" fill="#2F2E41"/>
<path d="M110.178 307.948C100.733 307.948 93.0763 299.881 93.0763 289.93C93.0763 279.978 100.733 271.911 110.178 271.911C119.623 271.911 127.28 279.978 127.28 289.93C127.28 299.881 119.623 307.948 110.178 307.948Z" fill="#FFB6B6"/>
<path d="M114.187 315.55L89.6025 307.667C89.6025 307.667 79.9826 331.316 81.5859 342.015C83.1892 352.714 97.7961 403.684 97.7961 403.684L130.22 384.809C130.22 384.809 130.754 373.548 132.357 368.48C133.961 363.412 139.038 347.927 127.815 334.976C116.592 322.025 114.187 315.55 114.187 315.55V315.55Z" fill="#E6E6E6"/>
<path d="M30.3417 364.77L31.7288 364.803L30.2367 436.227L28.8497 436.195L30.3417 364.77Z" fill="#3F3D56"/>
<path d="M30.9196 396.492C30.9917 396.233 32.6453 390.076 29.0709 384.035L27.8935 384.808C31.1296 390.277 29.6037 396.025 29.5881 396.082L30.9196 396.492V396.492Z" fill="#3F3D56"/>
<path d="M28.5396 384.661C28.5396 384.661 29.6046 376.992 19.7936 374.887C17.7496 374.448 15.8281 374.149 14.0667 373.949C11.9875 373.713 11.1765 376.712 13.0547 377.681C15.7749 379.083 18.3337 380.851 19.6674 382.944C23.3457 388.716 28.5396 384.661 28.5396 384.661V384.661Z" fill="#34D399"/>
<path d="M29.3276 418.67L30.6591 418.26C30.6435 418.203 29.1176 412.456 32.3537 406.987L31.1763 406.213C27.6019 412.255 29.2555 418.411 29.3276 418.67V418.67Z" fill="#3F3D56"/>
<path d="M31.7076 406.84C31.7076 406.84 30.6426 399.17 40.4536 397.065C42.4976 396.627 44.4191 396.327 46.1805 396.127C48.2597 395.892 49.0707 398.891 47.1924 399.859C44.4723 401.262 41.9135 403.029 40.5798 405.122C36.9014 410.894 31.7076 406.84 31.7076 406.84V406.84Z" fill="#34D399"/>
<path d="M18.0524 354.86C16.0776 354.312 14.2309 353.356 14.2921 352.41C14.3649 351.287 17.1066 350.534 19.4718 350.42C17.6878 348.949 16.0486 346.916 16.5499 345.997C17.0108 345.152 19.1546 345.479 21.1327 346.223C19.9621 344.46 19.1392 342.473 19.7659 341.793C20.5467 340.946 23.3176 342.408 25.2086 344.024C24.8405 341.507 25.0266 338.329 26.0983 338.041C26.9949 337.801 28.2656 339.649 29.1368 341.663C29.5218 339.55 30.3013 337.544 31.201 337.544C32.4825 337.544 33.5214 341.615 33.5214 344.267C33.5214 344.417 33.5177 344.558 33.5112 344.693C33.6398 344.536 33.7872 344.372 33.9553 344.2C35.7612 342.352 39.2569 340.301 40.1497 341.269C40.7765 341.949 39.9535 343.936 38.783 345.7C40.761 344.955 42.9049 344.628 43.3658 345.473C43.985 346.609 41.3381 349.444 39.1865 350.819C39.3158 350.802 39.4517 350.788 39.5963 350.778C42.1078 350.598 46.0335 351.412 46.1208 352.76C46.182 353.705 44.3353 354.661 42.3605 355.21C44.3266 355.988 46.1635 357.198 45.9968 358.157C45.7945 359.321 42.708 359.728 40.2812 359.49C42.0942 361.322 44.0601 364.606 43.2397 365.568C42.6385 366.273 40.701 365.543 38.9516 364.433C39.7912 366.461 40.2472 368.693 39.4782 369.235C38.4619 369.951 35.6748 367.458 34.2053 365.313C34.355 367.937 33.759 371.542 32.5765 371.684C31.6827 371.792 30.6922 369.892 30.0821 367.838C29.4334 369.943 28.37 371.932 27.4533 371.8C26.2613 371.629 25.7416 367.933 25.9639 365.307C24.4481 367.364 21.8971 369.564 20.9347 368.885C20.1657 368.343 20.6217 366.112 21.4613 364.083C19.7119 365.194 17.7745 365.924 17.1732 365.219C16.3528 364.256 18.3187 360.973 20.1317 359.14C17.7049 359.379 14.6185 358.972 14.4161 357.808C14.2494 356.849 16.0863 355.639 18.0524 354.86V354.86ZM28.6858 362.283C29.1934 362.356 29.6576 362.46 30.0106 362.727C30.3856 362.334 30.9332 362.215 31.5422 362.142C32.2241 362.06 32.8438 362.052 33.3163 362.466C33.4892 361.96 33.9143 361.6 34.4096 361.251C34.8354 360.951 35.2484 360.705 35.6801 360.657C35.7138 360.102 36.0485 359.629 36.4581 359.149C36.7193 358.843 36.9806 358.569 37.2706 358.386C36.8522 357.849 36.9005 357.171 37.0299 356.426C37.1222 355.895 37.2422 355.412 37.5106 355.052C37.1558 354.64 37.0675 354.058 37.0258 353.413C36.9802 352.71 36.9992 352.072 37.3846 351.597C36.3886 351.731 35.9079 351.077 35.4611 350.257C35.2059 349.789 35.0008 349.339 34.9852 348.882C34.4614 348.808 34.037 348.424 33.61 347.961C33.2452 347.565 32.935 347.173 32.8184 346.722C32.4004 347.092 31.8301 347.148 31.2009 347.148C30.588 347.148 30.031 347.095 29.6162 346.75C29.2941 347.057 28.8442 347.216 28.3477 347.349C27.8737 347.476 27.4264 347.561 27.0196 347.476C26.8711 347.833 26.6071 348.158 26.3056 348.485C25.8786 348.948 25.4543 349.332 24.9305 349.405C24.9149 349.862 24.7097 350.313 24.4545 350.781C24.1541 351.332 23.8386 351.809 23.3613 352.021C23.4171 352.341 23.4111 352.694 23.3871 353.064C23.3454 353.708 23.2571 354.29 22.9023 354.703C23.1707 355.062 23.2907 355.546 23.383 356.077C23.5124 356.821 23.5607 357.5 23.1423 358.036C23.4323 358.22 23.6936 358.493 23.9548 358.8C24.3644 359.28 24.6991 359.752 24.7328 360.308C25.1645 360.355 25.5775 360.602 26.0033 360.902C26.5849 361.312 27.0694 361.737 27.1625 362.396C27.5989 362.173 28.1214 362.202 28.6858 362.283V362.283Z" fill="#34D399"/>
<path d="M30.0407 363.564C25.4637 363.564 21.7533 359.655 21.7533 354.832C21.7533 350.01 25.4637 346.101 30.0407 346.101C34.6177 346.101 38.3281 350.01 38.3281 354.832C38.3281 359.655 34.6177 363.564 30.0407 363.564Z" fill="#3F3D56"/>
<path d="M168.295 433.787C172.295 438.838 173.065 445.106 170.015 447.788C166.964 450.471 161.248 448.551 157.246 443.498C155.622 441.503 154.474 439.127 153.9 436.568L137.204 414.945L145.337 408.011L162.421 429.077C164.708 430.13 166.722 431.746 168.295 433.787V433.787Z" fill="#FFB6B6"/>
<path d="M95.3295 326.91L89.5186 351.161L117.959 399.126L146.992 429.869L156.402 421.644L127.122 383.259L104.927 333.801L95.3295 326.91Z" fill="#E6E6E6"/>
<path d="M125.944 286.833C121.558 286.822 121.309 286.852 120.6 286.833C115.16 286.681 113.737 284.427 110.98 284.58C106.059 284.855 112.554 310.852 115.255 322.87C117.905 334.657 108.951 345.219 108.308 345.957C99.2197 356.37 83.2562 358.274 80.517 353.84C78.2999 350.25 86.1575 344.793 84.2581 336.947C82.4014 329.278 73.8281 330.095 71.4316 322.87C68.9219 315.304 77.356 311.488 82.6548 293.027C85.6979 282.424 85.1596 280.449 87.9992 273.882C95.5893 256.329 132.793 263.802 128.616 280.076C127.808 283.223 129.959 286.843 125.944 286.833V286.833Z" fill="#2F2E41"/>
</g>
</g>
<defs>
<radialGradient id="paint0_radial_36_47" cx="0" cy="0" r="1" gradientUnits="userSpaceOnUse" gradientTransform="translate(838.577 166.395) rotate(139.196) scale(41.276 41.7557)">
<stop stop-color="#CEEFF3"/>
<stop offset="0.00161432" stop-color="#CEEFF3"/>
<stop offset="1" stop-color="#5EB5C8"/>
</radialGradient>
<radialGradient id="paint1_radial_36_47" cx="0" cy="0" r="1" gradientUnits="userSpaceOnUse" gradientTransform="translate(703.255 442.071) rotate(-90) scale(719.988 674.62)">
<stop stop-color="#ADDED3"/>
<stop offset="0.00161432" stop-color="#ADDED3"/>
<stop offset="1" stop-color="#4E96A8"/>
</radialGradient>
<radialGradient id="paint2_radial_36_47" cx="0" cy="0" r="1" gradientUnits="userSpaceOnUse" gradientTransform="translate(703.255 442.07) rotate(-90) scale(719.987 674.617)">
<stop stop-color="#86847D"/>
<stop offset="0.00161432" stop-color="#86847D"/>
<stop offset="1" stop-color="#566269"/>
</radialGradient>
<clipPath id="clip0_36_47">
<rect width="908" height="472" fill="white" transform="matrix(-1 0 0 1 908 0)"/>
</clipPath>
<clipPath id="clip1_36_47">
<rect width="415" height="425" fill="white" transform="matrix(-1 0 0 1 427 24)"/>
</clipPath>
</defs>
</svg>
